{"title":"Dantes.Inferno.An.Animated.Epic.2010.480p.BRRip.XviD.AC3-Voltage","uid":5366757,"size":1560692659,"categoryP":"video","categoryS":"movies","magnet":"?xt=urn:btih:ca2a808bcf0914d52df210fcb4ea47bbcde90bf9&amp;dn=Dantes.Inferno.An.Animated.Epic.2010.480p.BRRip.XviD.AC3-Voltage&amp;tr=udp%3A%2F%2Ftracker.openbittorrent.com%3A80&amp;tr=udp%3A%2F%2Fopen.demonii.com%3A1337&amp;tr=udp%3A%2F%2Ftracker.coppersurfer.tk%3A6969&amp;tr=udp%3A%2F%2Fexodus.desync.com%3A6969","seeders":0,"leechers":1,"uploader":"koudou32","files":-1,"time":1266287587,"description":"Proudly Presents!!! \n\n\nDantes.Inferno.An.Animated.Epic.2010.480p.BRRip.XviD.AC3-Voltage  \n \n\n\nSource........::: MELiTE \nEncoder.......::: Zahnzek \nNotes.........::: Done our usual work. Enjoy \n\n\n\nGeneral \n\nFormat                           : AVI \nFormat/Info                      : Audio Video Interleave \nFile size                        : 1.45 GiB \nDuration                         : 1h 28mn \nOverall bit rate                 : 2 361 Kbps \nWriting application              : VirtualDubMod 1.5.10.2 (build 2542/release) \nWriting library                  : VirtualDubMod build 2542/release \n\n\nVideo \nFormat                           : MPEG-4 Visual \nFormat profile                   : AdvancedSimple@L5 \nFormat settings, BVOP            : Yes \nFormat settings, QPel            : No \nFormat settings, GMC             : No warppoints \nFormat settings, Matrix          : Default (H.263) \nMuxing mode                      : Packed bitstream \nCodec ID                         : XVID \nCodec ID/Hint                    : XviD \nDuration                         : 1h 28mn \nBit rate                         : 1 904 Kbps \nWidth                            : 720 pixels \nHeight                           : 400 pixels \nDisplay aspect ratio             : 16:9 \nFrame rate                       : 23.976 fps \nResolution                       : 24 bits \nColorimetry                      : 4:2:0 \nScan type                        : Progressive \nBits/(Pixel*Frame)               : 0.276 \nStream size                      : 1.17 GiB (81%) \nWriting library                  : XviD 1.2.1 (UTC 2008-12-04) \n\n\nAudio \nFormat                           : AC-3 \nFormat/Info                      : Audio Coding 3 \nCodec ID                         : 2000 \nDuration                         : 1h 28mn \nBit rate mode                    : Constant \nBit rate                         : 448 Kbps \nChannel(s)                       : 6 channels \nChannel positions                : Front: L C R, Surround: L R, LFE \nSampling rate                    : 48.0 KHz \nStream size                      : 282 MiB (19%) \nAlignment                        : Split accross interleaves \nInterleave, duration             : 42 ms (1.00 video frame) \nInterleave, preload duration     : 500 ms \nInterleave, preload duration     : 500 ms \n\n\n\n\nIMDB LINK....:: http://www.imdb.com/title/tt1472122/ \nAudio.............:: English \nSubtitles........:: None","torrent":{"xt":"urn:btih:ca2a808bcf0914d52df210fcb4ea47bbcde90bf9","amp;dn":"Dantes.Inferno.An.Animated.Epic.2010.480p.BRRip.XviD.AC3-Voltage","amp;tr":["udp%3A%2F%2Ftracker.openbittorrent.com%3A80","udp%3A%2F%2Fopen.demonii.com%3A1337","udp%3A%2F%2Ftracker.coppersurfer.tk%3A6969","udp%3A%2F%2Fexodus.desync.com%3A6969"],"infoHash":"ca2a808bcf0914d52df210fcb4ea47bbcde90bf9","infoHashBuffer":{"type":"Buffer","data":[202,42,128,139,207,9,20,213,45,242,16,252,180,234,71,187,205,233,11,249]},"announce":[],"urlList":[]}}